<svg xmlns="http://www.w3.org/2000/svg" width="691" height="250" xmlns:v="https://vecta.io/nano"><circle r="22.7" cy="215.8" cx="511.313"/><path d="M183.813 55.2c8.4 8.4 12.6 21.2 12.6 38v65.6h-33.3V98.3c0-9.1-2-15.8-5.7-20.5-3.7-4.4-9.1-6.7-16-6.7-7.9 0-14.1 2.5-18.5 7.6-4.4 4.9-6.9 12.6-6.9 22.5v57.5h-33.3V98.2c0-18-7.2-27.1-21.7-27.1-7.6 0-13.8 2.5-18.3 7.6-4.4 4.9-6.9 12.6-6.9 22.5v57.5h-33.3V44.3h31.8v13.3c4.2-4.9 9.4-8.6 15.5-11.1 6.2-2.5 13.1-3.9 20.2-3.9 8.1 0 15.3 1.5 22 4.7 6.4 3.2 11.8 7.9 15.8 14.1 4.7-5.9 10.6-10.6 17.8-13.8s15.1-4.9 23.4-4.9c14.9-.1 26.4 4.1 34.8 12.5zm65.9 97.9c-9.6-4.9-17-12.1-22.5-21-5.4-8.9-8.1-19-8.1-30.6s2.7-21.5 8.1-30.6c5.4-8.9 12.8-16 22.5-21 9.6-4.9 20.5-7.6 32.6-7.6s22.9 2.5 32.3 7.6c9.6 4.9 17 12.1 22.5 21 5.4 8.9 8.1 19 8.1 30.6s-2.7 21.5-8.1 30.6c-5.4 8.9-12.8 16-22.5 21s-20.2 7.6-32.3 7.6c-12.1-.2-23-2.6-32.6-7.6zm53.6-28.3c5.4-5.7 8.1-13.6 8.1-23.2s-2.7-17.3-8.1-23.2c-5.4-5.7-12.6-8.6-21-8.6-8.6 0-15.5 3-21.2 8.6-5.4 5.7-8.4 13.6-8.4 23.2s2.7 17.3 8.4 23.2c5.4 5.7 12.6 8.6 21.2 8.6 8.4 0 15.3-3 21-8.6zM492.513.6v158.2h-31.8v-13.3c-8.1 9.9-20.2 14.8-35.8 14.8-10.9 0-20.5-2.5-29.4-7.2-8.6-4.9-15.5-11.8-20.5-20.7s-7.4-19.2-7.4-31.1c0-11.8 2.5-22.2 7.4-31.1a52.33 52.33 0 0 1 20.5-20.7c8.6-4.9 18.5-7.2 29.4-7.2 14.6 0 26.2 4.7 34.3 13.8V.6h33.3zm-40.9 124.2c5.4-5.7 8.4-13.6 8.4-23.2s-2.7-17.3-8.4-23.2c-5.4-5.7-12.6-8.6-21-8.6-8.6 0-15.5 3-21.2 8.6-5.4 5.7-8.4 13.6-8.4 23.2s2.7 17.3 8.4 23.2c5.4 5.7 12.6 8.6 21.2 8.6 8.4 0 15.5-3 21-8.6zm183-13.9h-86.9c1.5 7.2 5.2 12.8 11.1 16.8 5.9 4.2 13.1 6.2 21.7 6.2 5.9 0 11.4-1 15.8-2.7 4.7-1.7 8.9-4.7 12.8-8.4l17.8 19.2c-10.9 12.3-26.6 18.5-47.4 18.5-12.8 0-24.4-2.5-34.3-7.6-9.9-4.9-17.5-12.1-22.9-21s-8.1-19-8.1-30.6c0-11.1 2.7-21.5 7.9-30.3 5.4-9.1 12.6-16 22-21.2 9.4-4.9 19.7-7.6 31.3-7.6 11.1 0 21.5 2.5 30.6 7.2 9.1 4.9 16.3 11.8 21.5 20.7 5.2 9.1 7.9 19.5 7.9 31.3-.3.9-.3 4.1-.8 9.5zm-77.9-36.7c-5.2 4.2-8.1 10.1-9.4 17.5h56.5c-1.2-7.2-4.2-13.1-9.4-17.3-5.2-4.4-11.4-6.4-18.8-6.4-7.3-.2-13.8 1.7-18.9 6.2zM657.113.6h33.3v158.2h-33.3V.6zm-603.8 205.8c2.5 2.5 3.7 6.2 3.7 10.9v19.5h-6.2V218c0-3.2-.7-5.7-2.2-7.4s-3.7-2.5-6.4-2.5c-3.2 0-5.4 1-7.4 3-1.7 2-2.7 4.7-2.7 8.4v17.3h-6.2V218c0-3.2-.7-5.7-2.2-7.4s-3.7-2.5-6.4-2.5c-3.2 0-5.4 1-7.4 3-1.7 2-2.7 4.7-2.7 8.4v17.3h-6.2v-33.6h5.9v4.9a10.69 10.69 0 0 1 4.9-3.9c2.2-.9 4.2-1.5 6.9-1.5s4.9.5 6.9 1.5a10.68 10.68 0 0 1 4.7 4.7c1.2-2 3-3.5 5.2-4.7 2.2-1 4.9-1.7 7.6-1.7 4.3.2 7.7 1.5 10.2 3.9zm41.7-.2c2.5 2.2 3.7 5.7 3.7 10.1v20.2h-5.7v-4.4c-1 1.5-2.5 2.7-4.4 3.7-2 .7-4.2 1.2-6.7 1.2-3.7 0-6.9-1-9.1-2.7s-3.5-4.2-3.5-7.2 1-5.4 3.2-7.2 5.7-2.7 10.4-2.7h9.6V216c0-2.7-.7-4.7-2.2-5.9-1.5-1.5-3.7-2.2-6.7-2.2-2 0-3.9.2-5.9 1-2 .7-3.5 1.5-4.9 2.7l-2.5-4.7c1.7-1.5 3.7-2.5 6.2-3.2s4.9-1.2 7.6-1.2c4.7.2 8.4 1.5 10.9 3.7zm-6.2 24.7c1.7-1 3-2.5 3.7-4.4v-4.7h-9.4c-5.2 0-7.6 1.7-7.6 5.2 0 1.7.7 3 2 3.9 1.2 1 3.2 1.5 5.4 1.5 2.2-.1 4.2-.6 5.9-1.5zm53.1-24.5c2.5 2.5 3.7 6.2 3.7 10.9v19.5h-6.2V218c0-3.2-.7-5.7-2.5-7.4-1.5-1.7-3.7-2.5-6.7-2.5-3.2 0-5.9 1-7.9 3s-3 4.7-3 8.4v17.3h-6.2v-33.6h5.9v5.2c1.2-1.7 3-3 4.9-3.9 2-1 4.4-1.5 7.2-1.5 4.9-.3 8.3 1 10.8 3.4zm41.9-.2c2.5 2.2 3.7 5.7 3.7 10.1v20.2h-5.7v-4.4c-1 1.5-2.5 2.7-4.4 3.7-2 .7-4.2 1.2-6.7 1.2-3.7 0-6.9-1-9.1-2.7s-3.5-4.2-3.5-7.2 1-5.4 3.2-7.2c2.2-1.7 5.7-2.7 10.4-2.7h9.6V216c0-2.7-.7-4.7-2.2-5.9-1.5-1.5-3.7-2.2-6.7-2.2-2 0-3.9.2-5.9 1-2 .7-3.5 1.5-4.9 2.7l-2.5-4.7c1.7-1.5 3.7-2.5 6.2-3.2s4.9-1.2 7.6-1.2c4.8.2 8.5 1.5 10.9 3.7zm-6.1 24.7c1.7-1 3-2.5 3.7-4.4v-4.7h-9.4c-5.2 0-7.6 1.7-7.6 5.2 0 1.7.7 3 2 3.9 1.2 1 3.2 1.5 5.4 1.5 2.2-.1 4.1-.6 5.9-1.5zm57.5-27.9v29.1c0 5.9-1.5 10.1-4.4 13.1s-7.4 4.2-13.1 4.2c-3.2 0-6.2-.5-9.1-1.2-3-1-5.2-2.2-6.9-3.7l3-4.7c1.5 1.2 3.5 2.5 5.9 3.2 2.2.7 4.7 1.2 7.2 1.2 3.9 0 6.9-1 8.6-2.7 2-2 2.7-4.7 2.7-8.4v-2.7c-1.5 1.7-3.2 3-5.4 3.9-2 1-4.4 1.2-6.9 1.2-3.2 0-6.2-.7-8.6-2-2.7-1.5-4.7-3.2-6.2-5.7s-2.2-5.2-2.2-8.4.7-5.9 2.2-8.4 3.5-4.4 6.2-5.7 5.4-2 8.6-2a17.87 17.87 0 0 1 7.2 1.5c2.2 1 3.9 2.2 5.4 4.2v-5h5.9v-1h-.1zm-11.6 25.6c1.7-1 3.2-2.2 4.2-3.9s1.5-3.5 1.5-5.7c0-3.2-1-5.9-3.2-7.9s-4.9-3-8.4-3-6.2 1-8.4 3-3.2 4.7-3.2 7.9c0 2.2.5 3.9 1.5 5.7s2.5 3 4.2 3.9c1.7 1 3.7 1.5 5.9 1.5 1.9-.2 3.9-.7 5.9-1.5zm57.2-6.6h-27.4c.5 3 1.7 5.4 3.9 7.2 2.2 1.7 4.9 2.7 8.4 2.7 3.9 0 7.2-1.2 9.6-3.9l3.5 3.9c-1.5 1.7-3.5 3.2-5.7 3.9-2.2 1-4.7 1.5-7.6 1.5-3.5 0-6.7-.7-9.4-2.2s-4.9-3.5-6.4-6.2-2.2-5.7-2.2-8.9.7-6.2 2.2-8.9 3.5-4.7 5.9-6.2c2.5-1.5 5.4-2.2 8.6-2.2s6.2.7 8.6 2.2c2.5 1.5 4.4 3.5 5.9 6.2s2.2 5.7 2.2 9.1c-.1.3-.1 1-.1 1.8zm-23.9-11.4c-2 1.7-3.2 4.2-3.5 6.9h21.7c-.2-2.7-1.5-5.2-3.5-6.9a11.01 11.01 0 0 0-7.4-2.7c-2.9 0-5.4.7-7.3 2.7zm88.6-4.2c2.5 2.5 3.7 6.2 3.7 10.9v19.5h-6.2V218c0-3.2-.7-5.7-2.2-7.4s-3.7-2.5-6.4-2.5c-3.2 0-5.4 1-7.4 3-1.7 2-2.7 4.7-2.7 8.4v17.3h-6.2V218c0-3.2-.7-5.7-2.2-7.4s-3.7-2.5-6.4-2.5c-3.2 0-5.4 1-7.4 3-1.7 2-2.7 4.7-2.7 8.4v17.3h-6.2v-33.6h5.9v4.9a10.69 10.69 0 0 1 4.9-3.9c2.2-1 4.2-1.5 6.9-1.5s4.9.5 6.9 1.5a10.68 10.68 0 0 1 4.7 4.7c1.2-2 3-3.5 5.2-4.7 2.2-1 4.9-1.7 7.6-1.7 4.2.2 7.7 1.5 10.2 3.9zm49.1 15.6h-27.4c.5 3 1.7 5.4 3.9 7.2s4.9 2.7 8.4 2.7c3.9 0 7.2-1.2 9.6-3.9l3.5 3.9c-1.5 1.7-3.5 3.2-5.7 3.9-2.2 1-4.7 1.5-7.6 1.5-3.5 0-6.7-.7-9.4-2.2s-4.9-3.5-6.4-6.2-2.2-5.7-2.2-8.9.7-6.2 2.2-8.9 3.5-4.7 5.9-6.2c2.5-1.5 5.4-2.2 8.6-2.2s6.2.7 8.6 2.2c2.5 1.5 4.4 3.5 5.9 6.2s2.2 5.7 2.2 9.1c.1.3.1 1-.1 1.8zm-23.7-11.4c-2 1.7-3.2 4.2-3.5 6.9h21.7c-.2-2.7-1.5-5.2-3.5-6.9a11.01 11.01 0 0 0-7.4-2.7c-2.9 0-5.4.7-7.3 2.7zm64.4-4.2c2.5 2.5 3.7 6.2 3.7 10.9v19.5h-6.2V218c0-3.2-.7-5.7-2.5-7.4-1.5-1.7-3.7-2.5-6.7-2.5-3.2 0-5.9 1-7.9 3s-3 4.7-3 8.4v17.3h-6.2v-33.6h5.9v5.2c1.2-1.7 3-3 4.9-3.9 2-1 4.4-1.5 7.2-1.5 4.8-.3 8.1 1 10.8 3.4zm40.2 28.4c-1 .7-2 1.2-3.2 1.7s-2.7.5-3.9.5c-3.5 0-5.9-1-7.9-2.7s-2.7-4.4-2.7-7.9v-18.5h-5.7V203h5.7v-7.4h6.2v7.4h9.6v4.9h-9.6v18.3c0 1.7.5 3.2 1.5 4.2s2.2 1.5 3.9 1.5c2 0 3.5-.5 4.7-1.5l1.4 4.4zm80.7 0c-2.7-1.5-4.7-3.5-6.4-6.2-1.5-2.7-2.2-5.7-2.2-8.9s.7-6.2 2.2-8.9 3.7-4.7 6.4-6.2 5.7-2.2 9.1-2.2c3 0 5.7.5 8.1 1.7 2.5 1.2 4.2 3 5.7 5.4l-4.7 3c-1-1.7-2.5-2.7-3.9-3.7-1.5-.7-3.2-1.2-5.2-1.2-2.2 0-4.2.5-5.9 1.5s-3.2 2.5-4.2 4.2-1.5 3.9-1.5 6.2c0 2.5.5 4.4 1.5 6.2 1 1.7 2.5 3.2 4.2 4.2s3.7 1.5 5.9 1.5c2 0 3.7-.5 5.2-1.2s3-2 3.9-3.7l4.7 3c-1.2 2.2-3.2 4.2-5.7 5.4s-5.2 2-8.1 2c-3.5.1-6.4-.6-9.1-2.1zm39.5 0c-2.7-1.5-4.7-3.5-6.2-6.2s-2.2-5.7-2.2-8.9.7-6.2 2.2-8.9 3.7-4.7 6.2-6.2c2.7-1.5 5.7-2.2 9.1-2.2 3.5 0 6.4.7 8.9 2.2 2.7 1.5 4.7 3.5 6.2 6.2s2.2 5.7 2.2 8.9-.7 6.2-2.2 8.9-3.5 4.7-6.2 6.2-5.7 2.2-8.9 2.2c-3.5 0-6.4-.7-9.1-2.2zm14.8-4.4c1.7-1 3-2.5 3.9-4.2 1-1.7 1.5-3.9 1.5-6.2s-.5-4.4-1.5-6.2c-1-1.7-2.2-3.2-3.9-4.2s-3.7-1.5-5.9-1.5-4.2.5-5.9 1.5-3 2.5-3.9 4.2c-1 1.7-1.5 3.9-1.5 6.2s.5 4.4 1.5 6.2c1 1.7 2.5 3.2 3.9 4.2 1.7 1 3.7 1.5 5.9 1.5s4.1-.6 5.9-1.5zm76.2-24c2.5 2.5 3.7 6.2 3.7 10.9v19.5h-6.2V218c0-3.2-.7-5.7-2.2-7.4s-3.7-2.5-6.4-2.5c-3.2 0-5.4 1-7.4 3-1.7 2-2.7 4.7-2.7 8.4v17.3h-6.2V218c0-3.2-.7-5.7-2.2-7.4s-3.7-2.5-6.4-2.5c-3.2 0-5.4 1-7.4 3-1.7 2-2.7 4.7-2.7 8.4v17.3h-6.2v-33.6h5.9v4.9a10.69 10.69 0 0 1 4.9-3.9c2-1 4.2-1.5 6.9-1.5s4.9.5 6.9 1.5a10.68 10.68 0 0 1 4.7 4.7c1.2-2 3-3.5 5.2-4.7 2.2-1 4.9-1.7 7.6-1.7 4.3.2 7.7 1.5 10.2 3.9z"/></svg>